<?xml version="1.0" standalone="no"?>
<!DOCTYPE svg PUBLIC "-//W3C//DTD SVG 20010904//EN"
 "http://www.w3.org/TR/2001/REC-SVG-20010904/DTD/svg10.dtd">
<svg version="1.0" xmlns="http://www.w3.org/2000/svg"
 width="32.000000pt" height="32.000000pt" viewBox="0 0 32.000000 32.000000"
 preserveAspectRatio="xMidYMid meet">

<g transform="translate(0.000000,32.000000) scale(0.100000,-0.100000)"
fill="#000000" stroke="none">
<path d="M44 168 c-17 -79 -29 -146 -27 -151 2 -4 33 -7 69 -7 57 0 65 2 61
18 -3 9 -13 50 -22 90 -16 67 -16 74 -1 97 16 24 15 26 -16 60 l-33 36 -31
-143z"/>
<path d="M191 263 c-36 -44 -35 -38 -15 -117 38 -150 30 -136 78 -136 23 0 45
2 48 5 7 7 -65 285 -74 285 -3 0 -20 -17 -37 -37z"/>
</g>
</svg>
